<?xml version="1.0"?>
<svg width="100" height="100" xmlns="http://www.w3.org/2000/svg">

 <g>
  <title>background</title>
  <rect fill="none" id="canvas_background" height="402" width="582" y="-1" x="-1"/>
 </g>
 <g>
  <title>Layer 1</title>
  <path stroke="null" id="svg_1" d="m19.423311,35.651867c-9.388596,0 -16.999207,-7.481461 -16.999207,-16.709339c0,-9.229267 7.610611,-16.710732 16.999207,-16.710732c1.069622,0 2.112324,0.108635 3.126694,0.29525c-0.187008,0.802185 -0.294678,1.633614 -0.294678,2.490105c0,6.152855 5.074692,11.140022 11.333742,11.140022c0.871288,0 1.717068,-0.105843 2.5331,-0.289677c0.188419,0.998554 0.298927,2.022167 0.298927,3.075031c0,9.227879 -7.610613,16.709339 -16.997786,16.709339zm-2.533092,-27.561077c-5.037849,1.132244 -8.799236,5.555389 -8.799236,10.851738c0,6.151455 5.073265,11.140022 11.332333,11.140022c5.38636,0 9.885857,-3.697556 11.037647,-8.649918c-6.876751,-1.25898 -12.291447,-6.581787 -13.570744,-13.341843z" clip-rule="evenodd" fill-rule="evenodd"/>
 </g>
</svg>